<svg width="91" height="103" viewBox="0 0 91 103" fill="none" xmlns="http://www.w3.org/2000/svg">
<path d="M87.0728 26.4672C71.1141 17.2279 56.742 8.92194 43.1164 1.08258C39.4767 -0.970584 35.3704 -0.037318 33.2239 3.32241C31.0774 6.68213 32.0107 10.6951 35.4637 13.1216C35.837 13.4016 35.9304 13.4949 35.9304 13.8682C35.9304 17.9745 35.837 22.8275 35.9304 27.5871C35.9304 27.7737 35.9304 27.8671 35.9304 27.8671C35.837 27.8671 35.7437 27.8671 35.5571 27.8671C33.5972 27.8671 31.6374 27.8671 30.0508 27.8671H28.2776C25.3845 27.8671 23.3314 28.987 22.0248 31.2268C21.8382 31.5068 21.7448 31.6001 21.1849 31.6001C20.2516 31.6001 19.3184 31.6001 18.3851 31.6001H18.1985C17.1719 31.6001 16.2386 31.6001 15.212 31.6001C14.4654 31.6001 13.9988 31.7867 13.6255 32.16C13.2522 32.5334 13.0656 33.0933 13.0656 33.7466C13.0656 35.5198 13.0656 37.293 13.0656 39.0661C13.0656 39.8128 13.2522 40.2794 13.6255 40.6527C14.1855 41.1193 14.8387 41.2126 15.3987 41.2126C16.332 41.2126 17.1719 41.2126 18.1051 41.2126H18.3851C19.3184 41.2126 20.2516 41.2126 21.1849 41.2126C21.6515 41.2126 21.8382 41.306 22.1181 41.6793C23.4247 43.8258 25.3845 44.9457 27.9043 44.9457C37.9835 44.9457 46.3828 44.9457 54.2222 44.9457C57.5819 44.9457 60.2884 42.7059 60.9416 39.3461C61.1283 38.2262 61.1283 37.1996 61.1283 36.1731C61.1283 35.8931 61.1283 35.6131 61.1283 35.3331C61.1283 30.8535 58.3285 28.0537 53.7556 27.9604C51.3291 27.9604 48.9026 27.9604 46.4762 27.9604H46.1962C46.1962 25.6272 46.1962 23.2008 46.1962 20.961V19.3744L52.5423 23.0141C58.6085 26.5605 65.5146 30.4802 72.2341 34.3065C72.7007 34.5865 72.8873 34.8665 72.8873 35.5198C72.8873 38.4129 72.8873 41.306 72.8873 44.1991V46.4389C72.8873 47.8388 73.4473 48.5854 74.4739 48.5854C74.9405 48.5854 75.3138 48.3987 75.5938 48.1188C76.0604 47.6521 76.0604 46.9988 76.0604 46.4389C76.0604 45.9723 76.0604 45.5989 76.0604 45.1323V36.5464L76.3404 36.733C77.367 37.293 78.3002 37.9462 79.3268 38.4129C79.7934 38.5995 79.8868 38.7862 79.7934 39.3461C79.7934 40.9327 79.7934 42.5192 79.7934 44.0124V44.1057C79.7934 44.9457 79.7934 45.6923 79.7934 46.5322C79.7934 47.0922 79.7934 48.4921 81.1933 48.5854H81.2867C81.7533 48.5854 82.0333 48.4921 82.3132 48.2121C82.7799 47.7454 82.7799 46.9988 82.7799 46.5322V44.5724C82.7799 43.1725 82.7799 41.6793 82.7799 40.2794C82.7799 40.0927 82.7799 39.9994 82.7799 39.9994C82.8732 39.9994 82.9665 39.9994 83.0598 39.9994C86.6995 40.1861 89.686 38.3196 90.6192 35.0532C91.7391 31.6934 90.3392 28.3337 87.0728 26.4672ZM42.7431 27.6804C42.7431 27.7737 42.7431 27.8671 42.7431 27.8671C42.6498 27.8671 42.4632 27.8671 42.2765 27.8671H42.1832C40.5966 27.8671 39.4767 27.9604 39.1968 27.6804C38.9168 27.4004 38.9168 26.2805 38.9168 24.694V15.2681L39.2901 15.4548C40.41 16.108 41.5299 16.7613 42.6498 17.3213C42.7431 17.4146 42.7431 17.4146 42.7431 17.6946V17.8812C42.7431 18.9078 42.7431 19.9344 42.7431 20.961V21.0543C42.7431 23.2008 42.7431 25.4406 42.7431 27.6804ZM57.6752 37.013C57.6752 37.293 57.6752 37.5729 57.6752 37.8529C57.6752 40.2794 56.3687 41.586 53.9422 41.586C52.729 41.586 51.5157 41.586 50.3025 41.586C49.0893 41.586 47.876 41.586 46.6628 41.586H46.1028C45.2629 41.586 44.5163 41.586 43.6764 41.586H39.57C35.837 41.586 32.104 41.586 28.371 41.586C25.2912 41.586 24.078 40.466 24.078 37.293V37.1063C24.078 36.1731 24.078 35.2398 24.1713 34.3065C24.358 32.3467 25.6645 31.1335 27.6244 31.1335C30.5175 31.1335 33.4106 31.1335 36.397 31.1335H40.8766C42.1832 31.1335 43.3964 31.1335 44.703 31.1335C45.4496 31.1335 46.2895 31.1335 47.1294 31.1335H48.2493C48.5293 31.1335 48.716 31.1335 48.996 31.1335C50.6758 31.1335 52.0757 31.1335 53.3823 31.0401C54.7821 30.9468 55.9954 31.4135 56.742 32.2534C57.4886 33 57.7686 34.1199 57.6752 35.4264C57.5819 35.9864 57.6752 36.5464 57.6752 37.013ZM39.3834 3.22908C39.4767 3.22908 39.4767 3.22908 39.57 3.22908C40.3167 3.22908 40.9699 3.60238 41.6232 3.88235L46.0095 6.40215C59.1685 14.0549 72.4207 21.6142 85.5796 29.2669C87.7261 30.4802 88.4727 32.72 87.3528 34.7732C86.7929 35.7064 86.0463 36.3597 85.113 36.6397C83.9931 36.9197 82.7799 36.733 81.5666 36.0797C73.8206 31.6001 66.1679 27.2138 58.4219 22.7341L45.6362 15.3614C42.9298 13.7749 40.2233 12.2817 37.6102 10.6951C35.837 9.66855 35.0904 7.89536 35.5571 5.93552C35.837 5.00226 36.4903 4.16233 37.5169 3.60237C38.0768 3.3224 38.6368 3.22908 39.3834 3.22908ZM18.7584 37.8529H18.6651C18.4784 37.8529 18.2918 37.8529 18.1985 37.8529C17.4519 37.8529 16.6119 37.8529 16.4253 37.7596C16.332 37.6663 16.2386 36.9197 16.2386 36.2664V35.9864C16.2386 35.3331 16.2386 35.0531 16.332 34.9598H17.8252C18.0118 34.9598 18.1985 34.9598 18.3851 34.9598H18.4784C18.5718 34.9598 18.6651 34.9598 18.7584 34.9598C19.6917 34.9598 20.6249 34.9598 20.8116 35.1465C20.9982 35.2398 20.9982 36.1731 20.9982 37.013V37.1996C20.9982 37.8529 20.9049 38.0396 20.9049 38.0396C20.9049 38.0396 20.8116 38.1329 20.2516 38.0396C19.785 37.8529 19.2251 37.8529 18.7584 37.8529Z" fill="#52525B"/>
<path d="M7.18608 59.1313C10.7325 59.038 14.2788 59.038 17.8252 59.1313H18.2918C19.8784 59.1313 21.4649 59.1313 23.0515 59.1313H28.5577C31.9174 59.1313 35.3704 59.1313 38.7302 59.1313C39.1968 59.1313 39.9434 59.1313 40.41 58.6647C40.69 58.3847 40.8767 58.0114 40.7833 57.5448C40.7833 55.9582 39.2901 55.9583 38.6368 55.9583C36.0237 55.9583 33.5039 55.9583 30.8908 55.9583H28.651C21.2783 55.9583 13.9989 55.9583 6.81278 55.9583C3.07975 55.9583 0 59.2247 0 62.9577C0 66.6907 2.8931 69.6771 6.62613 69.8638C7.55939 69.9571 8.58597 69.9571 9.61255 69.8638H10.5458C11.5724 69.8638 12.599 69.8638 12.7856 70.0504C12.9723 70.2371 12.9723 71.1703 12.9723 72.2903C12.9723 72.5702 12.9723 72.6636 12.9723 72.7569C12.8789 72.7569 12.7856 72.7569 12.599 72.7569C11.2924 72.7569 10.3591 73.0369 9.70587 73.7835C9.05259 74.4368 8.67929 75.4633 8.67929 76.7699C8.67929 84.0493 8.67929 91.422 8.67929 98.7014C8.67929 101.221 9.98585 102.621 12.5056 102.714C13.0656 102.714 13.6256 102.714 14.1855 102.714C14.6521 102.714 15.1188 102.714 15.4921 102.714C15.9587 102.714 16.332 102.714 16.7986 102.714H21.0916C24.4513 102.714 27.7177 102.714 31.0775 102.714C33.6906 102.714 35.2771 101.315 35.2771 98.8881C35.2771 91.6087 35.2771 84.0493 35.2771 76.4899C35.2771 75.37 34.9038 74.3434 34.1572 73.6901C33.5973 73.1302 32.7573 72.8502 31.9174 72.9435C31.1708 73.0369 31.0775 72.8502 30.9841 72.8502C30.7975 72.6636 30.8908 72.0103 30.8908 71.7303C30.9841 71.1703 30.9841 70.7037 30.8908 70.1438C30.8908 70.0504 30.8908 70.0504 30.8908 70.0504C30.8908 70.0504 30.9841 70.0504 31.0775 70.0504C33.6906 70.1438 35.8371 70.1438 37.7969 70.0504C37.8902 70.0504 37.9836 70.0504 38.1702 70.0504H38.2635C38.8235 70.1438 39.5701 70.2371 40.1301 69.6771C40.5034 69.3972 40.5967 68.9305 40.5967 68.3706C40.5967 67.8106 40.41 67.4373 40.1301 67.1573C39.5701 66.6907 38.8235 66.784 38.2635 66.8774C38.1702 66.8774 37.9836 66.8774 37.8902 66.8774C27.5311 66.8774 16.892 66.8774 7.74604 66.8774C5.87952 66.8774 4.57297 66.2241 3.82636 64.9175C3.17308 63.7043 3.07975 62.3044 3.73303 61.1845C4.57296 59.8779 5.78619 59.1313 7.18608 59.1313ZM32.384 84.7026V85.0759C32.384 86.0091 32.384 86.8491 32.384 87.7823V91.6087C32.384 93.7552 32.384 95.9017 32.384 98.0482C32.384 99.448 32.384 99.448 30.9841 99.448H25.8512C21.5582 99.448 17.2653 99.448 13.1589 99.448C12.599 99.448 12.319 99.3547 12.2257 99.2614C12.039 99.1681 12.039 98.7948 12.039 98.3281C12.039 90.2088 12.039 83.4894 12.039 77.1432C12.039 76.4899 12.1323 76.3033 12.2257 76.2099C12.4123 76.0233 12.6923 76.0233 13.2522 76.0233H13.3456C19.3184 76.1166 25.3846 76.1166 31.2641 76.0233C31.8241 76.0233 32.1974 76.1166 32.2907 76.2099C32.384 76.3033 32.4774 76.5832 32.4774 77.2365C32.2907 79.663 32.384 82.2761 32.384 84.7026ZM16.4253 70.0504C16.612 69.8638 17.5452 69.8638 18.5718 69.8638C19.4117 69.8638 20.2517 69.8638 21.0916 69.8638H21.1849C23.2381 69.8638 25.3846 69.8638 27.4378 69.8638H27.5311C27.9044 69.8638 27.9977 69.9571 27.9977 69.9571C27.9977 69.9571 28.091 70.0504 28.091 70.6104V70.7037C28.091 71.4503 28.091 72.3836 27.9044 72.4769C27.7177 72.5702 26.7845 72.5702 25.9446 72.5702H22.0249C21.6516 72.5702 21.2783 72.5702 20.905 72.5702H20.4383C19.0384 72.5702 17.8252 72.5702 16.612 72.5702C16.5187 72.5702 16.4253 72.5702 16.332 72.5702C16.332 72.4769 16.332 72.3836 16.332 72.1969C16.332 71.2637 16.2387 70.2371 16.4253 70.0504Z" fill="#52525B"/>
<path d="M82.6866 48.9587C71.0209 48.9587 59.3552 48.9587 47.6895 48.9587C43.6765 48.9587 41.4366 51.1986 41.4366 55.2116C41.4366 60.0645 41.4366 64.8241 41.4366 69.677V75.7432V81.6227C41.4366 86.4757 41.4366 91.3286 41.4366 96.1816C41.4366 100.195 43.6765 102.434 47.7828 102.434C53.6623 102.434 59.5418 102.434 65.4214 102.434C71.1142 102.434 76.9004 102.434 82.5933 102.434C86.6063 102.434 88.9394 100.101 88.9394 96.0882C88.9394 82.3694 88.9394 68.7438 88.9394 55.0249C88.9394 51.3852 86.513 48.9587 82.6866 48.9587ZM85.673 81.6227C85.673 86.4757 85.673 91.3286 85.673 96.1816C85.673 98.7014 84.9264 99.448 82.5 99.448C70.9276 99.448 59.2619 99.448 47.6895 99.448C45.543 99.448 44.6097 98.5147 44.5164 96.4615C44.5164 82.556 44.5164 68.7438 44.5164 55.3049C44.5164 53.2517 45.4497 52.3185 47.5028 52.3185C53.1957 52.3185 59.0752 52.3185 65.0481 52.3185C70.8342 52.3185 76.6204 52.3185 82.5933 52.3185C84.7398 52.3185 85.5797 53.1584 85.5797 55.3982C85.5797 60.2511 85.5797 65.1041 85.5797 69.8637V75.8365L85.673 81.6227Z" fill="#52525B"/>
<path d="M22.2117 88.7156C20.1585 88.7156 18.4786 90.3021 18.4786 92.3553C18.4786 93.3819 18.8519 94.4084 19.5985 95.155C20.2518 95.8083 21.1851 96.275 22.2117 96.275H22.305C24.3581 96.275 25.9447 94.5951 25.9447 92.5419C25.8514 90.3954 24.2648 88.7156 22.2117 88.7156Z" fill="#52525B"/>
<path d="M22.025 86.569C24.1715 86.569 25.758 85.0758 25.8513 83.0226C25.8513 81.9961 25.478 80.9695 24.8247 80.3162C24.1715 79.5696 23.1449 79.1963 22.1183 79.1963C20.0651 79.1963 18.4786 80.7828 18.3853 82.836C18.4786 84.8892 19.9718 86.569 22.025 86.569Z" fill="#52525B"/>
<path d="M82.3131 76.9562C81.0065 76.9562 79.6999 76.9562 78.2067 76.9562H77.9267C79.6066 74.0631 79.5133 70.61 77.5534 67.9036C75.5003 65.0105 71.7672 63.7039 68.3142 64.7305C66.261 65.3838 64.2079 65.3838 62.0614 64.7305C59.9149 64.0772 57.6751 64.2639 55.7152 65.3838C53.7554 66.5037 52.2622 68.2769 51.6089 70.5167C50.9556 72.7565 51.2356 74.903 52.4488 76.9562H51.0489C50.0223 76.9562 49.0891 76.9562 48.1558 76.9562H47.9692C47.3159 76.9562 45.916 76.9562 45.916 78.5427C45.916 79.0093 46.0093 79.3826 46.2893 79.6626C46.756 80.1292 47.5026 80.1292 48.1558 80.1292C49.3691 80.1292 50.5823 80.1292 51.8889 80.1292H53.1021C53.0088 80.4092 52.9155 80.6892 52.8221 80.9692C51.4222 85.6355 52.1688 89.7418 55.0619 93.1948C55.5286 93.7548 56.3685 94.5947 57.4884 94.5947C57.8617 94.5947 58.3283 94.5014 58.795 94.3148C60.1949 93.6615 60.6615 92.3549 60.1949 90.6751C59.6349 88.4352 60.1015 86.2887 61.7814 84.2356C62.6213 83.209 63.7412 82.649 65.0478 82.649C66.3543 82.649 67.5676 83.209 68.3142 84.2356C70.0874 86.2887 70.554 88.5286 69.9941 90.955C69.6208 92.5416 70.0874 93.7548 71.4873 94.4081C73.3538 95.248 74.567 93.9414 74.9403 93.5681C75.9669 92.4482 76.8068 91.1417 77.2734 89.6485C78.3 86.5687 78.2067 83.489 76.9935 80.3159H77.9267C79.3266 80.3159 80.6332 80.3159 82.0331 80.3159C82.593 80.3159 84.0862 80.3159 84.0862 78.7294C84.0862 78.2627 83.9929 77.8894 83.7129 77.6095C83.5263 76.9562 82.873 76.9562 82.3131 76.9562ZM74.6603 76.0229C74.287 76.3962 74.1004 76.6762 73.8204 76.9562C72.3272 78.0761 72.8872 79.2893 73.4471 80.0359C75.5936 83.0223 75.5003 87.502 73.4471 90.4884C74.1004 85.8221 71.2073 80.8758 67.1943 79.7559C66.4477 79.5693 65.7944 79.476 65.0478 79.476C63.0879 79.476 61.4081 80.2226 59.9149 81.8091C57.5817 84.2356 56.6485 87.222 57.0218 90.5817C55.9952 89.0885 55.4352 87.3153 55.4352 85.2622C55.4352 83.7689 55.6219 81.9958 56.6485 80.6892C58.235 78.7294 57.2084 77.5161 56.1818 76.4895C54.5953 74.9963 54.222 73.2231 54.8753 71.17C55.5286 69.0235 57.5817 67.6236 59.7282 67.6236C60.1949 67.6236 60.6615 67.7169 61.2214 67.8102C64.0212 68.6502 66.7277 68.6502 69.5274 67.8102C71.5806 67.157 73.9137 67.9969 75.127 69.9567C76.4335 71.9166 76.2469 74.2497 74.6603 76.0229Z" fill="#52525B"/>
<path d="M72.4208 57.918H74.4739C75.7805 57.918 77.0871 57.918 78.4869 57.918C79.8868 57.918 79.8868 57.918 79.8868 59.2245C79.8868 60.5311 79.8868 61.8376 79.8868 63.1442V65.4773C79.8868 66.1306 80.0735 66.6906 80.4468 66.9705C80.6334 67.1572 81.0067 67.4372 81.5667 67.4372C82.1266 67.4372 82.4999 67.1572 82.6866 66.9705C83.0599 66.5972 83.1532 66.1306 83.1532 65.4773C83.1532 64.7307 83.1532 63.9841 83.1532 63.2375V61.091C83.1532 60.3444 83.1532 59.5978 83.1532 58.8512C83.0599 56.5181 81.66 55.0249 79.4202 54.8382C77.5537 54.7449 75.7805 54.7449 74.0073 54.7449H72.4208C71.9541 54.7449 71.3009 54.8382 70.9276 55.2115C70.6476 55.4915 70.5543 55.8648 70.5543 56.4247C70.4609 57.918 71.8608 57.918 72.4208 57.918Z" fill="#52525B"/>
<path d="M62.2482 57.918C62.7148 57.918 63.0881 57.918 63.5547 57.918H64.5813H64.9546H65.3279C65.9812 57.918 66.5411 57.918 67.1944 57.918C68.1277 57.918 68.781 57.2647 68.781 56.2381C68.781 55.3982 68.1277 54.7449 67.2878 54.7449C66.4478 54.7449 65.6079 54.7449 64.768 54.7449C63.928 54.7449 62.9948 54.7449 62.1548 54.7449C61.5949 54.7449 61.2216 54.9315 60.8483 55.2115C60.5683 55.4915 60.475 55.8648 60.475 56.3314C60.475 57.358 61.2216 57.918 62.2482 57.918Z" fill="#52525B"/>
<path d="M69.2477 69.3037C68.8744 69.1171 68.4078 69.0237 67.8478 69.2104C66.0747 69.677 64.3015 69.677 62.6216 69.2104C61.6884 68.9304 60.8484 69.3037 60.5684 70.1436C60.4751 70.5169 60.1951 71.6368 61.7817 72.1968C62.9949 72.5701 64.1148 72.7568 65.3281 72.8501C66.3546 72.8501 67.4745 72.6634 68.6878 72.2901C70.181 71.8235 70.0877 70.7036 69.9943 70.3303C69.8077 69.8637 69.621 69.4904 69.2477 69.3037Z" fill="#52525B"/>
</svg>
