<svg width="80" height="107" viewBox="0 0 80 107" fill="none" xmlns="http://www.w3.org/2000/svg">
<path d="M69.1066 57.4865C69.3027 51.732 66.6561 46.2751 62.0489 42.9017C57.4418 39.4292 51.4624 38.5362 46.0711 40.4213C44.9928 40.8182 44.4047 41.2151 44.2086 41.8104C44.1106 42.2072 44.1106 42.6041 44.3066 43.001C44.9928 44.39 46.0711 43.9931 46.8553 43.6955L47.1493 43.5963C52.6386 41.9096 57.4418 42.9017 61.4608 46.7712C64.3035 49.45 65.8719 53.0218 65.8719 56.8912C65.8719 60.8598 64.3035 64.6301 61.3628 67.5073C59.4023 69.4916 58.128 71.476 57.6379 73.6587C57.3438 75.0477 57.3438 76.4368 57.3438 77.8258C57.3438 78.4211 57.3438 79.0164 57.3438 79.7109C57.1477 85.1678 55.5794 90.1286 52.5406 94.4941C51.6584 95.7839 50.7762 96.6768 49.894 97.2721C49.5999 97.4706 49.4039 97.5698 49.3058 97.4706C49.2078 97.4706 49.1098 97.2721 49.0118 96.9745C48.6197 95.9823 48.4236 94.9902 48.1296 93.6011C47.3454 88.2435 47.2473 82.6874 47.2473 77.5281C47.2473 75.5438 46.4632 73.6587 45.0908 72.2697C43.7185 70.8807 41.856 70.0869 39.8956 70.1862C35.8766 70.1862 32.7398 73.5595 32.7398 77.7266V79.6117C32.7398 82.8858 32.8378 86.2592 32.5438 89.6325V90.0294C32.3477 92.3113 32.1517 94.6925 31.2695 96.8753C31.1714 97.2721 30.9754 97.4706 30.7794 97.4706C30.5833 97.4706 30.3873 97.3713 30.0932 97.1729C29.211 96.4784 28.3288 95.5855 27.4465 94.3949C24.0157 89.4341 22.3493 83.7788 22.6434 77.5281C22.8394 73.5595 21.4671 70.1862 18.4284 67.2097C14.8015 63.6379 13.4291 59.074 14.5074 54.0139C15.3896 49.8469 17.8402 46.4735 21.3691 44.4892C24.8979 42.5049 29.1129 42.108 33.1319 43.497C33.9161 43.7947 35.1904 44.1915 35.7786 42.8025C35.9746 42.4057 35.9746 42.0088 35.8766 41.7111C35.6805 41.2151 35.0924 40.8182 34.2102 40.4213C31.4655 39.4292 28.4268 39.1315 25.192 39.7268C20.879 40.4213 16.86 43.001 14.2133 46.9696C11.4687 50.839 10.3904 55.6014 11.2726 59.9669C12.0568 64.0348 13.8212 67.4081 16.762 70.1862C18.6244 71.972 19.5066 74.0556 19.5066 76.6352C19.5066 78.4211 19.5066 80.4054 19.7027 82.2905C20.3888 88.3427 22.4473 93.4027 25.8782 97.5698C26.9564 98.9588 28.1327 99.8518 29.407 100.447C29.9952 100.745 30.5833 100.844 31.0734 100.844C32.1517 100.844 33.1319 100.249 33.9161 99.058C34.5043 98.0659 34.8964 96.8753 35.0924 95.8831C35.9746 92.1129 36.0726 88.1443 36.1707 84.3741V83.5803C36.1707 82.985 36.1707 82.4889 36.1707 81.8937C36.1707 80.7031 36.1707 79.4132 36.1707 78.1234C36.0726 75.5438 37.739 73.6587 39.9936 73.5595C41.1699 73.5595 42.2481 73.8571 43.0323 74.6509C43.8165 75.4446 44.3066 76.6352 44.3066 77.925C44.3066 81.4968 44.3066 85.7631 44.6987 90.0294C44.8948 92.5098 45.2869 95.4862 46.3651 98.1651C46.9533 99.6533 47.7375 100.546 48.8157 100.844C49.796 101.142 50.9723 100.844 52.2466 99.951C54.109 98.6612 55.3833 96.8753 56.2655 95.387C59.5983 90.1286 61.1667 83.9772 60.9707 77.2305C60.8727 74.3532 61.8529 72.0713 64.0094 69.9877C67.1462 66.5152 69.0086 62.3481 69.1066 57.4865Z" fill="#52525B"/>
<path d="M15.7819 36.9488C21.6633 36.9488 27.5447 36.9488 33.3281 36.9488C35.5827 36.9488 37.8372 36.9488 40.0918 36.9488H46.8554C52.7369 36.9488 58.6183 36.9488 64.5977 36.9488C67.1463 36.9488 69.0088 36.0559 70.4791 34.0715C74.3021 29.0115 75.7724 23.4554 74.6942 17.5025C73.2238 9.56518 68.6167 3.90987 61.1669 1.33025C53.7171 -1.34858 46.7574 0.0404438 40.5819 5.29889C40.0918 5.69576 39.9938 5.69576 39.5036 5.29889C34.5044 0.933388 28.721 -0.654069 22.3495 0.437308C15.1938 1.72712 9.31233 6.48949 6.66569 13.3354C4.01904 20.1813 4.99928 27.8209 9.41035 33.6747C11.0768 35.8574 13.0372 36.9488 15.7819 36.9488ZM43.3266 19.0899V19.4868C43.4246 19.9829 43.4246 20.479 43.4246 20.975C43.4246 22.0664 44.1108 22.6617 44.993 22.6617C45.4831 22.6617 45.8752 22.5625 46.1693 22.2648C46.4633 21.9672 46.6594 21.4711 46.6594 20.7766C46.6594 17.8001 45.9732 15.0221 44.7969 12.3432C44.3068 11.2519 43.6206 9.96205 42.7384 8.77146C42.3463 8.37459 42.3463 8.17616 42.9345 7.7793C49.7961 1.52868 60.8728 2.02476 67.1463 9.0691C73.0278 15.6174 73.4199 24.9437 68.2246 31.988C67.2444 33.2778 66.0681 33.8731 64.4997 33.8731C58.5203 33.8731 52.5408 33.8731 46.5614 33.8731H40.0918H33.7202C27.8388 33.8731 21.9574 33.8731 16.076 33.8731C14.3115 33.8731 13.1353 33.2778 12.057 31.8888C8.43011 26.928 7.5479 20.479 9.70442 14.7244C11.959 8.96989 16.8602 4.90203 22.8396 3.71144C23.8198 3.51301 24.8981 3.41379 25.8783 3.41379C29.6032 3.41379 33.3281 4.60438 36.3669 6.98557C40.2878 9.86283 42.8365 14.3276 43.3266 19.0899Z" fill="#52525B"/>
<path d="M79.1052 97.8675C74.5961 93.7004 69.0087 91.8153 62.5392 92.1129C60.6767 92.2121 59.2063 93.1051 58.2261 94.891C57.4419 96.28 56.7558 97.5698 55.8735 98.7604C54.6973 100.348 53.2269 102.035 51.1684 103.126C48.9139 104.217 46.8554 103.622 45.483 101.34C44.9929 100.447 44.6988 99.3557 44.4048 98.3635L44.3067 97.8675C43.7186 95.7839 42.1502 94.4941 40.0917 94.4941C38.1312 94.4941 36.5629 95.7839 35.8767 97.8675L35.7787 98.2643C35.3866 99.4549 35.0925 100.646 34.5044 101.638C33.3281 103.523 31.5636 104.118 29.4071 103.324C28.721 103.027 28.1328 102.729 27.4466 102.233C25.3882 100.646 23.6237 98.3635 22.0553 95.2878C20.9771 93.2043 19.2127 92.1129 16.9581 92.1129C16.566 92.1129 16.2719 92.1129 15.8798 92.1129H15.3897C9.80237 92.3114 4.90119 94.2957 0.882213 97.9667C0.490118 98.3635 0 98.8596 0 99.5541C0 99.951 0.196047 100.348 0.490119 100.646C1.56838 101.836 2.74466 100.745 3.13676 100.348C6.95969 96.8753 11.4688 95.1886 17.1542 95.3871C18.0364 95.3871 18.6245 95.7839 19.0166 96.5777C19.8008 98.0659 20.683 99.5541 21.5652 100.844C23.5257 103.523 25.3882 105.11 27.5447 106.202C28.721 106.698 29.8972 106.995 30.9755 106.995C33.4261 106.995 35.6806 105.706 37.151 103.225C37.8372 102.035 38.4253 100.646 38.8174 98.9588C39.0135 97.9667 39.5036 97.8675 39.9937 97.8675C40.3858 97.8675 40.8759 97.9667 41.072 98.9588C41.4641 100.646 41.9542 102.035 42.7384 103.225C44.5028 106.102 47.0514 107.392 50.2862 106.896C51.7565 106.698 53.0309 106.102 54.5992 104.912C57.0498 103.027 59.0103 100.447 60.8727 96.8753C61.3629 95.8831 61.951 95.4863 62.8332 95.3871C68.4206 95.1886 73.0277 96.7761 76.8506 100.348C77.2427 100.745 78.419 101.836 79.4973 100.646C79.7913 100.249 79.9874 99.951 79.9874 99.5541C80.0854 98.8596 79.5953 98.2643 79.1052 97.8675Z" fill="#52525B"/>
<path d="M38.4253 62.3483C38.1312 61.9514 37.7391 61.5546 37.445 61.1577C37.0529 60.7609 36.6608 60.5624 36.1707 60.5624C35.7786 60.5624 35.3865 60.7609 34.9944 61.0585C34.3083 61.753 34.3083 62.646 35.0925 63.4397L38.8174 67.2099C39.2095 67.6068 39.6016 67.8052 39.9937 67.8052C40.3857 67.8052 40.7778 67.6068 41.1699 67.3091C42.4442 66.1185 43.7186 64.7295 45.0909 63.3405C45.483 62.9436 45.581 62.5467 45.581 62.1499C45.581 61.753 45.385 61.3561 44.9929 61.0585C44.3067 60.364 43.4245 60.4632 42.7383 61.1577C42.3462 61.5546 42.0521 61.9514 41.6601 62.3483L41.562 62.4475C41.562 62.3483 41.562 62.1499 41.562 62.0507C41.562 61.9514 41.562 61.8522 41.562 61.753C41.562 60.0663 41.562 58.3797 41.562 56.693V54.7087C41.562 54.5102 41.562 54.2126 41.562 54.0142C41.562 53.4189 41.366 52.9228 41.0719 52.6251C40.7778 52.3275 40.3857 52.2283 39.8956 52.2283C38.9154 52.2283 38.3272 52.9228 38.3272 54.1134C38.3272 56.2961 38.3272 58.3797 38.3272 60.5624V62.5467L38.4253 62.3483Z" fill="#52525B"/>
<path d="M59.7945 62.2489C59.9905 62.6457 60.2846 62.9434 60.6767 63.1418C60.9707 63.241 61.1668 63.3402 61.3628 63.3402C62.049 63.3402 62.5391 62.8442 62.9312 61.9512C63.6174 60.3638 63.9115 58.7763 63.9115 57.2881C63.9115 51.4343 60.0885 46.4735 54.6972 45.1837C54.2071 45.0845 52.7368 44.6876 52.3447 46.1759C52.1486 46.8704 52.2466 47.2672 52.4427 47.5649C52.7367 47.9618 53.1288 48.2594 53.815 48.3586C56.2656 48.8547 58.4221 50.5414 59.6964 52.9226C60.9707 55.403 61.0688 58.181 59.9905 60.7606C59.6964 61.2567 59.5984 61.7528 59.7945 62.2489Z" fill="#52525B"/>
<path d="M39.9937 50.5413H40.0917C40.5818 50.5413 40.8759 50.4421 41.17 50.1445C41.464 49.8468 41.6601 49.45 41.6601 48.8547C41.6601 48.2594 41.6601 47.6641 41.5621 46.9696C41.464 46.0766 40.8759 45.5805 39.8956 45.6798C39.0134 45.6798 38.4253 46.2751 38.4253 47.168C38.4253 47.3664 38.4253 47.5649 38.4253 47.7633V48.8547C38.5233 49.8468 39.0134 50.4421 39.9937 50.5413Z" fill="#52525B"/>
<path d="M39.9934 43.8941C39.9934 43.8941 40.0914 43.8941 39.9934 43.8941C40.4835 43.8941 40.8756 43.7948 41.1697 43.4972C41.4638 43.1995 41.6598 42.7035 41.6598 42.2074C41.6598 41.7113 41.6598 41.116 41.6598 40.6199C41.5618 39.6278 40.9737 39.0325 39.9934 39.0325C39.1112 39.0325 38.5231 39.6278 38.5231 40.6199C38.5231 40.8184 38.5231 40.9176 38.5231 41.116V41.7113C38.5231 41.9097 38.5231 42.009 38.5231 42.2074C38.425 43.1995 39.0132 43.8941 39.9934 43.8941Z" fill="#52525B"/>
<path d="M56.6577 10.0613C59.9905 10.9542 62.6371 13.0377 64.1075 15.8158C65.5779 18.6931 65.6759 22.0664 64.3035 25.4397C64.1075 25.9358 63.6174 27.3249 65.0877 27.9201C65.3818 28.0194 65.5779 28.1186 65.7739 28.1186C65.97 28.1186 66.068 28.1186 66.264 28.0194C66.8522 27.8209 67.1462 27.2256 67.3423 26.7296C68.1265 24.8444 68.5186 22.9593 68.5186 20.8758C68.5186 14.1291 63.7154 8.07694 57.3439 6.78713C56.8537 6.68791 55.3834 6.39026 54.9913 7.87851C54.7952 9.56518 56.2656 9.96204 56.6577 10.0613Z" fill="#52525B"/>
</svg>
