<svg width="109" height="81" viewBox="0 0 109 81" fill="none" xmlns="http://www.w3.org/2000/svg">
<path d="M107.835 54.1053C105.482 52.7879 103.883 50.906 102.848 48.3654C101.812 45.8248 100.213 43.5664 97.8604 42.155C93.9083 39.7085 89.8622 37.262 85.7219 35.0978C82.0522 33.1217 77.6296 36.2269 77.9119 40.4613C77.9119 40.9317 77.9119 41.214 77.4414 41.4022C75.1831 42.5314 74.148 44.4133 74.2421 46.9539C74.2421 47.3303 74.2421 47.5185 73.8658 47.6126C72.172 48.3654 71.137 49.7768 70.5724 51.5647C68.22 50.2473 66.0558 48.93 63.7974 47.7067C63.2329 47.4244 63.421 47.048 63.5151 46.5775C64.9266 42.8137 65.9616 38.8616 66.7144 34.9096C67.5613 30.2047 66.9026 25.9704 63.5151 22.3947C63.1388 22.0183 63.2329 21.736 63.5151 21.3597C64.9266 19.2895 66.2439 17.3135 67.5613 15.2434C67.8436 14.7729 68.22 14.6788 68.7845 14.6788C70.5724 14.6788 72.2661 14.6788 74.054 14.6788C75.3713 14.6788 76.1241 14.0201 76.1241 12.7969C76.1241 11.6677 75.3713 11.009 74.054 11.009C71.8897 11.009 69.6314 11.009 67.4672 11.009C66.4321 11.009 65.6794 11.3854 65.1148 12.3264C63.6092 14.5847 62.1037 16.843 60.5981 19.1013C60.2218 19.6659 59.9395 19.76 59.3749 19.4777C54.576 17.4076 49.9652 18.0663 45.9191 21.2656C45.3545 21.736 45.0722 21.736 44.5076 21.2656C41.7788 18.9131 38.5795 18.0663 35.0039 18.3486C33.0279 18.5368 31.24 19.1013 29.5463 20.1364C28.7935 20.6069 28.4171 21.2656 28.6053 22.1124C28.7935 22.9593 29.3581 23.4298 30.2991 23.5239C30.8636 23.5239 31.3341 23.2416 31.8987 22.9593C35.7566 20.8892 40.3674 21.8301 43.1903 25.1235C44.6017 26.8173 45.5427 26.7232 47.0482 25.1235C49.5889 22.2065 53.7291 21.0774 57.2107 22.4888C57.8694 22.7711 57.9634 22.9593 57.5871 23.5239C56.6461 24.9353 55.7051 26.3468 54.7642 27.7582C54.0114 28.9815 54.1055 30.0165 55.0465 30.6752C55.9874 31.3339 57.0225 31.0516 57.8693 29.8283C58.9044 28.3228 59.9395 26.8173 60.9745 25.1235C62.7624 27.2877 63.5151 29.6402 63.2328 32.369C62.7624 36.7915 61.5391 41.1199 60.0336 45.2602C59.8454 45.9189 59.5631 46.2011 58.8103 46.2952C55.611 46.8598 53.635 49.7768 54.2937 52.7879C54.3878 53.0702 54.576 53.4466 54.3878 53.6348C54.1055 53.9171 53.635 53.823 53.3527 53.6348C52.2236 53.0702 51.4708 52.0351 50.8121 51.0942C49.8711 49.6827 49.2125 48.0831 48.3656 46.4834C47.7069 45.1661 46.6719 44.4133 45.0722 44.4133C43.5667 44.4133 42.5316 45.1661 41.7788 46.3893C41.4965 46.9539 41.2143 47.5185 40.932 48.0831C40.0851 49.8709 39.1441 51.5647 37.6386 52.9761C36.5094 54.0112 35.6626 54.0112 34.5334 53.0702C33.7806 52.5056 33.2161 51.6588 32.7456 50.906C30.3932 47.1421 28.9817 42.9078 27.9466 38.6734C27.0998 35.0978 26.1588 31.428 27.4762 27.7582C27.7584 26.8173 27.0998 25.8763 26.1588 25.6881C25.3119 25.4058 24.2769 25.8763 23.9946 26.8173C23.5241 28.0405 23.1477 29.3579 23.2418 30.6752C23.43 37.1679 25.2178 43.2842 27.7584 49.2122C28.7935 51.6587 30.205 54.0112 32.181 55.799C34.7216 58.0573 37.6386 58.0573 40.0851 55.799C41.5906 54.4816 42.7198 52.7879 43.6608 51.0001C44.1312 50.1532 44.5076 49.3063 45.0722 48.2713C45.3545 48.93 45.5427 49.4004 45.825 49.7768C46.9541 52.0351 48.0833 54.1053 49.9652 55.799C51.9413 57.4927 54.0114 58.0573 56.4579 56.8341C56.9284 56.6459 57.2107 56.6459 57.5871 56.8341C60.8804 58.716 64.1738 60.692 67.4672 62.574C67.8436 62.8562 68.0318 63.0444 67.9377 63.5149C67.3731 66.8083 68.6905 69.5371 71.5133 71.2308C73.6776 72.5482 75.9359 73.7714 78.1942 75.0888C82.3344 77.6294 86.6629 78.0999 91.1795 76.4062C94.2847 75.277 97.2958 75.6534 100.119 77.253C101.53 78.0999 102.942 78.9468 104.447 79.6995C105.576 80.3582 106.705 80.0759 107.176 79.1349C107.646 78.194 107.364 77.1589 106.329 76.5002C105.2 75.8416 103.977 75.1829 102.942 74.5242C98.6132 71.7954 94.0965 71.3249 89.2976 73.1128C86.757 74.0537 84.1223 73.9596 81.6758 72.7364C78.7588 71.2308 75.9359 69.5371 73.113 67.8434C72.0779 67.2788 71.6074 66.3378 71.5133 64.9264C73.3953 65.9614 75.089 66.9965 76.7827 67.9375C78.1001 68.6902 79.1352 68.5961 79.7938 67.5611C80.3584 66.526 79.982 65.585 78.6647 64.7382C74.5244 62.3858 70.4783 59.9393 66.338 57.5868C63.7974 56.1754 61.3509 54.6698 58.8103 53.2584C58.0575 52.882 57.6811 52.2233 57.7752 51.3765C57.8693 50.5296 58.4339 50.0591 59.2808 49.8709C59.9395 49.7768 60.41 50.0591 60.9745 50.3414C64.9266 52.5997 68.7845 54.858 72.7366 57.1164C73.8658 57.775 74.9008 57.5868 75.4654 56.74C76.1241 55.8931 75.8418 54.858 74.9008 54.1053C74.0539 53.3525 73.7717 52.4115 74.3362 51.6587C74.9008 50.7178 75.7477 50.7178 76.6887 51.0001C77.8178 51.4706 78.7588 51.1883 79.2293 50.2473C79.6997 49.4004 79.4175 48.5536 78.5706 47.8008C77.7237 47.048 77.4414 46.1071 78.006 45.3543C78.5706 44.5074 79.4175 44.3192 80.3584 44.6956C81.4876 45.1661 82.4285 44.8838 82.899 44.0369C83.3695 43.1901 83.0872 42.3432 82.2403 41.5904C81.864 41.3081 81.4876 40.9317 81.3935 40.4613C81.2994 39.7085 81.3935 39.1439 82.0522 38.6734C82.7108 38.2029 83.4636 38.2029 84.1223 38.6734C87.3216 40.5554 90.4268 42.4373 93.626 44.131C96.2607 45.5425 98.1427 47.6126 99.3659 50.4355C100.589 53.4466 102.753 55.7049 105.576 57.3045C106.8 57.9632 107.835 57.8691 108.399 56.8341C109.434 55.799 109.058 54.858 107.835 54.1053Z" fill="#52525B"/>
<path d="M65.5853 69.161C65.2089 69.161 64.8325 69.161 64.4562 69.161C46.2955 69.161 28.0408 69.161 9.88014 69.161C5.92808 69.161 3.66976 66.9026 3.66976 62.9506C3.66976 45.2604 3.66976 27.5703 3.66976 9.88014C3.66976 5.83399 5.83399 3.66976 9.88014 3.66976C26.9116 3.66976 43.9431 3.66976 60.9746 3.66976C61.351 3.66976 61.6332 3.66976 62.0096 3.66976C62.9506 3.57567 63.6093 2.82289 63.6093 1.78783C63.6093 0.658674 62.8565 0 61.351 0C43.9431 0 26.6293 0 9.22147 0C3.95206 0 0 3.95205 0 9.31556C0 27.288 0 45.3545 0 63.327C0 68.7846 3.95205 72.6425 9.31555 72.7366C18.4429 72.7366 27.5703 72.7366 36.6977 72.7366C46.0132 72.7366 55.2347 72.7366 64.5502 72.7366C64.9266 72.7366 65.2089 72.7366 65.5853 72.7366C66.4322 72.6425 67.1849 71.7957 67.1849 70.9488C67.1849 70.0078 66.4322 69.2551 65.5853 69.161Z" fill="#52525B"/>
<path d="M69.4434 3.66976C78.1943 3.66976 86.9453 3.66976 95.6963 3.66976C99.6484 3.66976 101.813 5.92808 101.907 9.88014C101.907 20.3249 101.907 30.8637 101.907 41.3084C101.907 42.8139 102.565 43.6608 103.789 43.6608C104.918 43.6608 105.576 42.8139 105.576 41.4025C105.576 35.9449 105.576 30.4873 105.576 25.0297C105.576 19.7603 105.576 14.4909 105.576 9.22146C105.576 4.04615 101.624 0.0940966 96.355 0C90.1446 0 84.0283 0 77.818 0C74.9951 0 72.1722 0 69.3493 0C68.126 0 67.3732 0.752772 67.3732 1.88193C67.2791 3.01109 68.0319 3.66976 69.4434 3.66976Z" fill="#52525B"/>
<path d="M98.1427 16.0906C98.1427 13.8323 98.1427 11.668 98.1427 9.40972C98.1427 7.90418 97.484 7.3396 95.9785 7.3396C91.3677 7.3396 86.757 7.3396 82.1463 7.3396C80.6407 7.3396 79.9821 7.99828 79.9821 9.40972C79.9821 11.668 79.9821 13.8323 79.9821 16.0906C79.9821 17.5961 80.6407 18.1607 82.1463 18.1607C84.4046 18.1607 86.6629 18.1607 88.9212 18.1607C91.2736 18.1607 93.6261 18.1607 95.9785 18.1607C97.484 18.2548 98.1427 17.5961 98.1427 16.0906ZM91.8382 14.585C90.8972 14.585 90.0504 14.585 89.1094 14.585C87.5098 14.585 85.9101 14.585 84.3105 14.585C83.7459 14.585 83.6518 14.3968 83.6518 13.9264C83.5577 11.0094 83.5577 11.0094 86.4747 11.0094C88.9212 11.0094 91.2736 11.0094 93.7201 11.0094C94.3788 11.0094 94.567 11.1976 94.567 11.8562C94.567 14.585 94.567 14.585 91.8382 14.585Z" fill="#52525B"/>
<path d="M12.7971 19.2898C12.703 20.6071 13.5498 21.454 14.5849 21.3599C15.62 21.3599 16.3727 20.513 16.3727 19.2898C16.3727 17.7842 16.3727 17.7842 17.9724 17.6901C19.1956 17.596 19.9484 16.9373 19.9484 15.8082C19.9484 14.679 19.1956 14.0204 17.8783 13.9263C16.3727 13.8322 16.3727 13.8322 16.3727 12.4207C16.3727 11.1034 15.62 10.3506 14.4908 10.3506C13.3616 10.3506 12.6089 11.1975 12.703 12.5148C12.7971 13.8322 12.4207 14.1144 11.1974 14.0203C9.88008 13.9263 9.0332 14.679 9.0332 15.8082C9.0332 16.9373 9.88008 17.7842 11.1974 17.6901C12.6089 17.596 12.8912 18.0665 12.7971 19.2898Z" fill="#52525B"/>
<path d="M36.6978 29.1699C37.8269 28.9817 38.3915 28.2289 38.3915 27.288C38.3915 26.2529 37.5446 25.5942 36.4155 25.5942C33.3103 25.5942 30.8638 28.2289 30.8638 31.8046C30.8638 32.7456 31.052 33.8747 31.2402 35.0039C31.5224 36.1331 32.4634 36.7917 33.4985 36.5094C34.4394 36.3212 35.004 35.2862 34.8158 34.2511C34.7217 33.4983 34.5335 32.7456 34.4394 31.9928C34.4394 30.205 35.0981 29.3581 36.6978 29.1699Z" fill="#52525B"/>
<path d="M92.6851 23.6184C92.6851 22.5833 91.9323 21.8306 90.709 21.8306C87.7921 21.8306 84.781 21.8306 81.864 21.8306C80.7348 21.8306 79.982 22.4892 79.8879 23.6184C79.8879 24.7476 80.6407 25.5003 81.864 25.5003C83.2754 25.5003 84.781 25.5003 86.1924 25.5003C87.698 25.5003 89.2035 25.5003 90.709 25.5003C92.0264 25.5003 92.7792 24.7476 92.6851 23.6184Z" fill="#52525B"/>
<path d="M12.7971 63.7032C12.7971 64.8324 13.5499 65.4911 14.7731 65.4911C16.2787 65.4911 17.6901 65.4911 19.1956 65.4911C20.6071 65.4911 22.1126 65.4911 23.5241 65.4911C24.7473 65.4911 25.5001 64.7383 25.5001 63.7032C25.5001 62.5741 24.7473 61.9154 23.5241 61.9154C20.6071 61.9154 17.6901 61.9154 14.7731 61.9154C13.4558 61.8213 12.703 62.5741 12.7971 63.7032Z" fill="#52525B"/>
<path d="M89.0153 29.1699C86.6629 29.1699 84.2164 29.1699 81.864 29.1699C80.7348 29.1699 79.9821 29.9227 79.9821 30.9578C79.9821 31.9928 80.7348 32.7456 81.864 32.7456C83.0872 32.7456 84.3105 32.7456 85.5337 32.7456C86.6629 32.7456 87.8862 32.7456 89.0153 32.7456C90.1445 32.7456 90.8972 31.9928 90.8972 30.9578C90.8972 29.9227 90.1445 29.1699 89.0153 29.1699Z" fill="#52525B"/>
<path d="M21.7363 54.5762C20.6071 54.5762 19.3839 54.5762 18.2547 54.5762C17.1256 54.5762 15.9023 54.5762 14.7732 54.5762C13.644 54.5762 12.8912 55.3289 12.8912 56.364C12.8912 57.4932 13.644 58.2459 14.8673 58.2459C17.2197 58.2459 19.5721 58.2459 21.9245 58.2459C23.0537 58.2459 23.8064 57.4932 23.8064 56.4581C23.7123 55.3289 22.9596 54.5762 21.7363 54.5762Z" fill="#52525B"/>
<path d="M10.9151 34.5335C10.821 33.4984 10.0683 32.7456 9.03319 32.8397C8.09222 32.8397 7.33946 33.4984 7.24536 34.5335C7.24536 35.8508 7.24536 37.0741 7.24536 38.3914C7.24536 39.4265 8.09223 40.1793 9.12729 40.0852C10.1624 40.0852 10.821 39.3324 10.9151 38.2973C10.9151 37.7328 10.9151 37.0741 10.9151 36.5095C10.9151 35.7567 11.0092 35.1921 10.9151 34.5335Z" fill="#52525B"/>
<path d="M21.0777 10.4447C22.0187 10.4447 22.9597 9.5037 22.9597 8.56274C22.9597 7.52767 22.0187 6.7749 20.9837 6.7749C19.9486 6.869 19.2899 7.62177 19.2899 8.65683C19.2899 9.6919 20.1368 10.4447 21.0777 10.4447Z" fill="#52525B"/>
<path d="M25.5001 17.7841C26.5352 17.7841 27.2879 16.9373 27.2879 15.8081C27.2879 14.773 26.4411 14.0203 25.406 14.0203C24.3709 14.0203 23.6182 14.773 23.6182 15.8081C23.6182 16.8432 24.465 17.7841 25.5001 17.7841Z" fill="#52525B"/>
<path d="M36.4153 11.0094C36.4153 12.0444 37.2621 12.7972 38.2972 12.7972C39.3323 12.7972 40.085 12.0444 40.085 11.0094C40.085 9.97431 39.3323 9.12744 38.2031 9.12744C37.0739 9.12744 36.3212 9.97431 36.4153 11.0094Z" fill="#52525B"/>
<path d="M43.6608 11.0091C43.6608 12.0442 44.5076 12.8911 45.5427 12.797C46.5778 12.797 47.3305 11.9501 47.3305 11.0091C47.3305 9.97408 46.5778 9.2213 45.5427 9.2213C44.4135 9.12721 43.6608 9.87998 43.6608 11.0091Z" fill="#52525B"/>
<path d="M50.9062 10.9153C50.9062 11.9503 51.659 12.7031 52.6941 12.7031C53.7292 12.7031 54.576 11.9503 54.576 10.9153C54.576 9.88021 53.8232 9.12744 52.7882 9.12744C51.7531 9.12744 50.9062 9.88021 50.9062 10.9153Z" fill="#52525B"/>
</svg>
