<svg width="102" height="93" viewBox="0 0 102 93" fill="none" xmlns="http://www.w3.org/2000/svg">
<path d="M100.946 25.0687C96.2015 22.2574 91.4574 19.446 86.6253 16.7225C85.5711 16.1075 84.5168 16.3711 83.9897 17.1618C83.4625 18.0403 83.8139 19.0946 84.8682 19.7974C85.8346 20.4124 86.8889 21.0274 87.8553 21.5545C88.5581 21.9059 88.7338 22.1695 88.2067 22.8723C87.416 24.1023 86.6253 25.4201 85.9225 26.738C85.4832 27.5287 85.1318 27.7922 84.2532 27.2651C82.8475 26.3866 82.0568 26.6501 81.1783 28.0558C75.6434 37.632 70.1085 47.1204 64.6615 56.6966C62.9044 59.7716 63.168 62.7587 65.2765 65.57C65.4522 65.7457 65.8036 65.9214 65.6279 66.3607C65.4522 66.7121 65.1886 66.8 64.7494 66.8C62.1137 66.8 59.478 66.8 56.9302 66.8C56.3152 66.8 56.2274 66.6243 56.2274 66.0971C56.2274 64.955 56.3152 63.725 56.2274 62.5829C56.1395 61.7922 56.491 61.353 57.0181 60.9137C62.2015 56.6088 64.3101 50.986 63.168 44.3969C60.9716 32.5364 47.2661 26.6501 37.1628 33.1514C36.5478 33.5028 36.1964 33.5028 35.5814 33.1514C31.6279 30.7793 27.323 29.9008 22.7545 30.8672C10.1034 33.6785 5.00775 48.2625 13.0026 58.4537C15.6382 60.2108 15.6382 62.8465 15.4625 65.57C15.4625 65.7457 15.4625 65.8336 15.4625 66.0093C15.5504 66.6243 15.3747 66.8879 14.6718 66.8879C13.7054 66.8 12.739 66.8879 11.7726 66.8879C8.52196 66.8879 5.18346 66.8879 1.93282 66.8879C0.614987 66.8879 0 67.5028 0 68.645C0 69.7871 0.702842 70.3142 1.93282 70.3142C6.06202 70.3142 10.2791 70.3142 14.4083 70.3142C15.199 70.3142 15.3747 70.5778 15.4625 71.2806C15.5504 78.924 18.8889 85.3375 23.0181 91.4873C23.8088 92.6295 25.5659 93.2445 26.6202 92.8052C28.553 91.9266 29.6951 90.6088 29.6072 88.3245C29.5194 85.601 29.5194 82.8775 29.9587 80.154C30.5736 75.9369 32.155 72.0713 34.615 68.645C35.4057 67.5907 35.9328 67.5028 36.6357 68.5571C39.9742 73.2134 41.907 78.3969 42.0827 84.1953C42.0827 85.6889 42.0827 87.2703 42.0827 88.7638C42.0827 90.6966 43.2248 92.0145 44.8941 92.5416C46.6512 92.9809 48.0569 92.3659 49.1111 90.7845C49.7261 89.7302 50.3411 88.676 51.0439 87.6217C54.2946 82.6139 56.1395 77.1669 56.2274 71.1049C56.2274 70.6656 56.3152 70.4899 56.8424 70.4899C58.9509 70.4899 61.0594 70.4899 63.3437 70.4899C61.4109 73.9163 59.478 77.0791 57.6331 80.3297C56.9302 81.5597 57.1059 82.7018 58.0723 83.2289C59.0388 83.7561 60.0052 83.3168 60.708 82.1747C62.8165 78.5726 64.8372 75.0584 66.8579 71.4563C67.2972 70.6656 67.7364 70.4899 68.615 70.4899C76.522 70.4899 84.4289 70.4899 92.3359 70.4899C93.7416 70.4899 94.5323 69.7871 94.5323 68.7328C94.5323 67.5907 93.8295 67.0636 92.3359 67.0636C88.7338 67.0636 85.2196 67.0636 81.6176 67.0636C79.5969 67.0636 77.5762 67.0636 75.3798 67.0636C76.6098 66.0093 77.4005 65.0429 78.1034 63.8129C83.3747 54.5881 88.7338 45.3633 94.093 36.1385C95.1473 34.2935 95.0594 33.5907 93.2145 32.4486C92.7752 32.185 92.6873 32.0093 92.9509 31.4822C93.8295 29.9886 94.708 28.4951 95.5866 27.0015C95.8501 26.5623 96.0258 26.4744 96.4651 26.738C97.2558 27.2651 98.1344 27.7922 99.0129 28.2315C100.067 28.8465 101.209 28.6708 101.736 27.7922C102.264 26.738 102 25.6837 100.946 25.0687ZM54.031 59.6837C53.2403 60.2108 53.0646 60.9137 53.0646 61.7044C53.0646 65.1307 53.0646 68.5571 52.9767 71.9835C52.8889 76.3762 51.4832 80.5054 49.2868 84.2832C48.3204 86.0403 47.2662 87.7096 46.124 89.5545C45.6848 88.7638 45.8605 88.1488 45.8605 87.5339C46.0362 82.614 45.4212 77.8698 43.4884 73.3891C42.522 71.1049 41.292 68.9085 39.7985 66.8879C37.6021 63.9008 34.2636 63.9008 32.155 66.8879C29.6951 70.4021 28.0258 74.2677 27.1473 78.3969C26.4444 81.6475 26.5323 84.986 26.5323 88.3245C26.5323 88.676 26.5323 89.0274 26.5323 89.291C26.1809 89.4667 26.093 89.291 25.9173 89.1152C23.8966 85.6889 21.6124 82.3504 20.3824 78.4847C19.2403 74.7948 19.2403 71.017 19.2403 67.1514C19.2403 65.0429 19.2403 62.9343 19.2403 60.8258C19.2403 59.7716 18.8889 59.0687 18.0982 58.3659C13.969 54.9395 12.2997 50.5468 13.2661 45.2754C14.2326 39.9163 17.4832 36.4021 22.6667 34.7328C31.7158 31.7457 38.5685 39.0377 39.8863 45.0997C40.062 46.0661 40.1499 46.9447 40.2377 47.9111C40.3256 49.2289 40.9406 49.8439 41.9948 49.8439C43.137 49.8439 43.7519 49.1411 43.6641 47.7354C43.5762 43.7819 42.3463 40.2677 39.7985 37.1927C39.2713 36.5778 39.447 36.4021 39.9742 36.1385C48.584 31.3064 59.478 37.1928 60.1809 47.0326C60.6202 52.4796 58.5995 56.6966 54.031 59.6837ZM87.9432 35.6992C87.416 35.4356 86.8889 35.0842 86.3618 34.8207C85.3953 34.2935 84.2532 34.645 83.8139 35.3478C83.3747 36.1385 83.6382 37.2806 84.5168 37.8077C85.3953 38.4227 86.3618 38.9499 87.3282 39.477C87.6796 39.6527 87.8553 39.9163 87.5039 40.2677C87.0646 40.9705 86.6253 41.7612 86.186 42.5519C85.9225 42.9912 85.7468 42.9033 85.3953 42.7276C84.5168 42.2005 83.5504 41.6734 82.6718 41.1462C81.6176 40.5312 80.5633 40.7948 80.0362 41.5855C79.509 42.4641 79.8605 43.5183 80.9147 44.2212C81.7933 44.7483 82.6718 45.3633 83.6382 45.8026C84.0775 46.0661 84.1654 46.2418 83.9018 46.6811C83.3747 47.5597 83.0233 48.8775 82.3204 49.1411C81.5297 49.4046 80.5633 48.3504 79.6848 47.8232C79.2455 47.6475 78.8941 47.2961 78.4548 47.2083C77.5762 47.1204 76.7855 47.2961 76.4341 48.1747C76.0827 49.0532 76.3463 49.8439 77.1369 50.371C78.0155 50.986 78.9819 51.5132 79.9483 52.0403C80.2997 52.216 80.5633 52.3917 80.2119 52.9189C79.6848 53.7974 79.3333 55.1152 78.5426 55.3788C77.7519 55.6424 76.7855 54.5003 75.907 54.061C75.5555 53.8853 75.292 53.7095 74.9406 53.5338C73.9742 53.1824 73.0078 53.446 72.6563 54.2367C72.3049 55.0274 72.5685 56.1695 73.3592 56.6966C74.2377 57.3116 75.2041 57.8387 76.1705 58.3659C76.6098 58.6294 76.6977 58.893 76.4341 59.3323C75.7313 60.4744 75.1163 61.6165 74.4134 62.6708C73.3592 64.4279 71.0749 65.2186 69.5814 64.4279C67.385 63.2858 66.5065 61.1772 67.385 59.0687C67.5607 58.7173 67.7364 58.278 67.9121 57.9266C73.0078 49.1411 78.1034 40.3555 83.1111 31.57C83.5504 30.8672 83.8139 30.7793 84.5168 31.2186C86.4496 32.4486 88.4703 33.5907 90.491 34.7328C89.7881 36.7535 89.7881 36.7535 87.9432 35.6992ZM92.6873 25.1566C91.8088 26.5623 90.9302 27.968 90.2274 29.4615C89.7881 30.2522 89.4367 29.9008 88.9974 29.6372C88.2946 29.3736 88.8217 28.9344 88.9974 28.6708C89.876 27.1772 90.6667 25.7716 91.5452 24.278C91.6331 24.1023 91.7209 23.663 92.1602 23.9266C92.5116 24.1023 92.7752 24.278 93.1266 24.5416C92.8631 24.8052 92.7752 24.9809 92.6873 25.1566Z" fill="#52525B"/>
<path d="M50.5169 18.5672C50.9562 20.2365 51.3954 21.9057 51.9226 23.575C52.274 24.805 53.3282 25.5078 54.2068 25.2443C55.0854 24.9807 55.5246 23.9264 55.1732 22.6964V22.6086C54.1189 18.9187 53.1525 15.1409 52.0983 11.451C51.2197 8.11247 50.2533 4.77397 49.3748 1.52332C49.1112 0.46906 48.2326 -0.145925 47.4419 0.0297861C46.4755 0.205497 46.0363 0.820476 46.0363 1.87474C46.0363 2.05045 46.1241 2.40188 46.212 2.66545C47.6177 7.84891 49.1112 13.2081 50.5169 18.5672Z" fill="#52525B"/>
<path d="M61.938 25.244C62.553 25.1562 63.0801 24.8926 63.4316 24.3655C67.4729 18.567 71.6021 12.7686 75.6434 6.97014C76.3463 5.91588 76.2584 5.12519 75.292 4.42234C74.3256 3.80736 73.6228 3.98306 72.9199 4.94947C71.7778 6.53086 70.7235 8.02441 69.6693 9.6058C66.6822 13.8229 63.6951 18.1278 60.708 22.3448C60.2688 22.9598 60.0931 23.5748 60.3566 24.1898C60.6202 24.8926 61.323 25.1562 61.938 25.244Z" fill="#52525B"/>
<path d="M29.1681 18.216C29.6952 18.6552 30.2223 19.0067 30.6616 19.3581C34.6151 22.2573 38.5686 25.1565 42.5221 28.0558C43.5763 28.8465 44.5427 28.7586 45.1577 27.9679C45.7727 27.1772 45.5092 26.0351 44.5427 25.3322C40.15 22.0816 35.8451 18.9188 31.4523 15.6682C31.1009 15.4046 30.8373 15.2289 30.398 15.2289C29.6073 15.2289 28.9045 15.4046 28.6409 16.1953C28.3774 16.986 28.4652 17.6888 29.1681 18.216Z" fill="#52525B"/>
</svg>
